<?xml version="1.0" standalone="no"?>
<!DOCTYPE svg PUBLIC "-//W3C//DTD SVG 20010904//EN"
 "http://www.w3.org/TR/2001/REC-SVG-20010904/DTD/svg10.dtd">
<svg version="1.0" xmlns="http://www.w3.org/2000/svg"
 width="300.000000pt" height="600.000000pt" viewBox="0 0 600.000000 600.000000"
 preserveAspectRatio="xMidYMid meet">

<g transform="translate(0.000000,600.000000) scale(0.100000,-0.100000)"
fill="#75563a" stroke="none">
<path d="M1790 5302 c-301 -1 -427 -6 -435 -14 -7 -8 -5 -9 8 -4 26 9 1454 7
1496 -2 19 -4 43 -19 53 -33 27 -35 49 -126 43 -179 l-4 -45 11 42 c9 35 7 54
-7 105 -23 84 -40 106 -89 119 -45 12 -363 16 -1076 11z"/>
<path d="M3473 5283 c-18 -9 -33 -20 -33 -24 0 -4 17 2 37 12 31 16 60 19 170
19 119 0 134 -2 139 -17 15 -50 35 -81 53 -86 24 -6 51 16 51 41 0 10 7 28 16
40 15 22 15 22 347 22 348 0 401 -5 412 -41 4 -11 9 -18 12 -16 11 11 -19 46
-48 56 -21 7 -149 11 -369 11 -374 0 -356 3 -381 -68 -17 -49 -69 -38 -69 14
0 47 -21 54 -168 53 -105 0 -145 -4 -169 -16z"/>
<path d="M1283 5242 c-48 -47 -57 -82 -43 -169 16 -101 22 -109 150 -212 23
-18 46 -45 51 -59 5 -13 12 -22 16 -19 3 4 -2 18 -11 32 -9 14 -14 30 -11 36
4 5 3 8 -2 7 -9 -3 -83 46 -123 82 -36 33 -60 105 -60 181 0 69 16 103 63 137
17 12 27 22 21 22 -7 0 -29 -17 -51 -38z"/>
<path d="M3411 5237 c-19 -24 -41 -98 -41 -142 0 -56 28 -139 54 -163 11 -10
53 -31 91 -45 168 -65 248 -170 275 -360 l9 -62 -5 73 c-5 89 -31 159 -80 218
-50 62 -146 130 -208 149 -84 25 -109 58 -120 156 -7 57 13 156 30 152 6 -1
10 7 10 18 0 23 0 23 -15 6z"/>
<path d="M4680 5216 c0 -14 29 -63 44 -75 21 -17 22 -110 1 -137 -8 -10 -14
-23 -15 -29 0 -5 10 5 22 23 34 53 29 107 -15 171 -20 29 -37 50 -37 47z"/>
<path d="M4645 5199 c-4 -6 -4 -13 -1 -16 3 -4 6 -1 6 6 0 7 5 9 12 5 7 -4 8
-3 4 4 -9 15 -13 15 -21 1z"/>
<path d="M1881 5101 c-20 -37 -24 -99 -8 -123 45 -68 88 -86 120 -50 31 34 21
73 -34 135 -28 31 -55 57 -59 57 -5 0 -14 -8 -19 -19z"/>
<path d="M2936 5005 c-9 -26 -7 -32 5 -12 6 10 9 21 6 23 -2 3 -7 -2 -11 -11z"/>
<path d="M2886 4995 c-9 -26 -7 -32 5 -12 6 10 9 21 6 23 -2 3 -7 -2 -11 -11z"/>
<path d="M2904 4955 c-10 -8 -14 -15 -8 -15 6 0 17 7 24 15 16 19 9 19 -16 0z"/>
<path d="M1333 4943 c0 -9 4 -10 14 -2 7 6 13 12 13 14 0 1 -6 2 -13 2 -8 0
-14 -6 -14 -14z"/>
<path d="M4440 4934 c-6 -14 -10 -40 -9 -57 1 -36 5 -29 14 26 8 51 28 56 75
18 56 -45 116 -38 165 20 20 24 20 24 0 9 -35 -27 -83 -50 -102 -50 -10 0 -29
7 -41 16 -20 13 -21 18 -10 32 12 15 11 16 -5 3 -14 -11 -21 -11 -29 -3 -20
20 -48 13 -58 -14z"/>
<path d="M4551 4934 c0 -11 3 -14 6 -6 3 7 2 16 -1 19 -3 4 -6 -2 -5 -13z"/>
<path d="M2805 4924 c-65 -16 -97 -40 -126 -96 -23 -44 -23 -89 -4 -223 21
-146 21 -148 -14 -140 -41 9 -53 -15 -39 -78 5 -26 11 -47 13 -47 2 0 1 25 -2
56 l-6 57 26 -5 c16 -3 31 0 38 8 11 14 11 30 -11 199 -9 78 -10 110 0 144 15
57 56 98 106 106 36 6 111 34 89 34 -5 -1 -37 -7 -70 -15z"/>
<path d="M3658 4873 c6 -2 9 -10 6 -15 -4 -7 -2 -8 5 -4 13 9 5 26 -12 25 -9
0 -8 -2 1 -6z"/>
<path d="M4406 4816 c-9 -14 -40 -41 -69 -59 -73 -48 -84 -63 -106 -148 -10
-41 -37 -119 -59 -174 -51 -128 -114 -324 -109 -339 2 -6 10 9 17 34 22 82 81
254 115 335 19 44 39 104 45 134 15 75 41 113 103 151 49 30 94 76 84 86 -2 3
-12 -7 -21 -20z"/>
<path d="M1472 4715 c0 -16 2 -22 5 -12 2 9 2 23 0 30 -3 6 -5 -1 -5 -18z"/>
<path d="M1481 4672 c-1 -6 13 -76 29 -154 17 -77 30 -142 30 -144 0 -11 35
-34 52 -34 11 0 27 -8 34 -17 13 -16 13 -15 5 7 -6 18 -16 25 -35 26 -34 1
-43 11 -50 49 -7 41 -56 258 -61 270 -2 6 -4 4 -4 -3z"/>
<path d="M2577 4469 c7 -7 15 -10 18 -7 3 3 -2 9 -12 12 -14 6 -15 5 -6 -5z"/>
<path d="M3764 4365 c-11 -52 -17 -92 -13 -90 8 6 44 173 38 180 -3 2 -14 -38
-25 -90z"/>
<path d="M1565 4390 c-3 -5 1 -10 10 -10 9 0 13 5 10 10 -3 6 -8 10 -10 10 -2
0 -7 -4 -10 -10z"/>
<path d="M2270 4368 c0 -8 8 -30 18 -49 14 -28 17 -60 17 -175 0 -150 -7 -174
-49 -174 -60 0 -82 52 -92 221 -8 120 -16 149 -43 149 -10 0 -41 -21 -69 -47
-41 -40 -52 -57 -61 -102 -22 -106 21 -216 103 -258 16 -9 61 -18 100 -22 87
-7 92 -18 42 -98 -36 -60 -131 -135 -188 -148 -15 -4 -32 -13 -39 -21 -19 -23
16 -28 90 -15 151 28 286 128 347 259 49 105 60 168 44 251 -27 144 -90 229
-174 238 -36 5 -46 2 -46 -9z"/>
<path d="M2619 4304 c-8 -45 -2 -53 57 -79 30 -13 56 -30 58 -37 2 -7 9 -33
15 -58 l10 -45 -5 55 c-3 30 -9 59 -14 65 -5 6 -31 19 -59 29 -48 17 -50 19
-53 59 -3 39 -3 40 -9 11z"/>
<path d="M1648 4275 c9 -39 8 -160 -1 -205 -8 -34 -7 -34 7 5 19 50 20 160 1
200 l-14 30 7 -30z"/>
<path d="M3731 4228 c-17 -52 -42 -170 -38 -174 2 -3 16 42 30 98 25 101 29
141 8 76z"/>
<path d="M1931 4224 c0 -11 3 -14 6 -6 3 7 2 16 -1 19 -3 4 -6 -2 -5 -13z"/>
<path d="M2761 4065 c0 -11 8 -60 18 -110 11 -49 20 -79 20 -65 0 31 -37 202
-38 175z"/>
<path d="M4041 4039 c-7 -22 -11 -43 -8 -45 2 -2 9 14 16 37 7 22 11 43 8 45
-2 2 -9 -14 -16 -37z"/>
<path d="M3672 3989 c-17 -70 -9 -73 10 -4 8 30 12 55 8 55 -3 0 -12 -23 -18
-51z"/>
<path d="M1632 4015 c0 -11 3 -29 8 -40 11 -25 11 1 0 35 -6 20 -8 21 -8 5z"/>
<path d="M4021 3964 c0 -11 3 -14 6 -6 3 7 2 16 -1 19 -3 4 -6 -2 -5 -13z"/>
<path d="M1652 3930 c0 -14 3 -34 8 -45 l9 -20 -1 20 c0 11 -4 31 -8 45 l-8
25 0 -25z"/>
<path d="M3999 3884 c-9 -30 -13 -56 -10 -58 7 -5 35 103 29 109 -2 2 -11 -21
-19 -51z"/>
<path d="M2741 3914 c0 -11 3 -14 6 -6 3 7 2 16 -1 19 -3 4 -6 -2 -5 -13z"/>
<path d="M3646 3894 c-4 -14 -5 -28 -3 -31 3 -2 8 8 11 23 4 14 5 28 3 31 -3
2 -8 -8 -11 -23z"/>
<path d="M1670 3854 c0 -30 101 -446 107 -441 4 4 -21 119 -73 337 -23 95 -34
129 -34 104z"/>
<path d="M2800 3848 c0 -8 13 -86 30 -174 16 -87 35 -186 41 -219 6 -33 14
-80 19 -105 5 -25 14 -76 21 -113 6 -37 14 -66 16 -63 5 4 -40 273 -72 431 -8
39 -21 111 -31 160 -16 86 -24 115 -24 83z"/>
<path d="M3602 3723 c-18 -70 -49 -186 -69 -258 -24 -85 -36 -153 -37 -197 -1
-54 -5 -71 -23 -90 -13 -14 -23 -27 -23 -31 0 -4 13 7 28 23 16 16 31 27 34
25 3 -3 1 14 -5 38 -7 33 -6 58 6 103 90 345 128 497 125 506 -2 5 -18 -48
-36 -119z"/>
<path d="M3946 3758 c-23 -28 -26 -41 -26 -105 0 -48 -7 -93 -20 -130 -11 -32
-20 -65 -20 -74 0 -9 -7 -22 -15 -29 -8 -7 -15 -17 -15 -23 0 -21 41 43 47 75
3 18 12 44 19 58 7 14 14 65 16 114 2 56 8 92 16 99 14 11 36 47 29 47 -2 0
-16 -14 -31 -32z"/>
<path d="M2390 3434 c-81 -35 -129 -95 -160 -201 -24 -78 29 -162 116 -187 32
-10 57 19 51 58 -7 42 10 117 43 194 33 79 53 102 84 102 65 0 73 -77 25 -233
-41 -133 -54 -156 -94 -173 -30 -12 -34 -18 -29 -42 5 -23 -1 -34 -38 -66 -53
-48 -110 -74 -191 -87 -69 -11 -88 -22 -68 -41 8 -9 47 -13 124 -12 129 0 186
18 290 87 136 92 219 306 173 445 -23 70 -84 136 -143 156 -58 20 -137 20
-183 0z"/>
<path d="M1786 3356 c3 -27 10 -58 14 -70 6 -14 7 -6 3 24 -9 66 -24 107 -17
46z"/>
<path d="M3836 3317 c-4 -38 -23 -120 -42 -184 -19 -64 -34 -128 -33 -142 0
-14 9 6 19 44 10 39 26 95 35 125 19 67 38 185 33 208 -3 9 -8 -14 -12 -51z"/>
<path d="M1811 3250 c-1 -28 30 -145 45 -167 8 -13 20 -23 26 -23 6 0 3 9 -8
21 -10 11 -29 58 -41 102 -11 45 -21 75 -22 67z"/>
<path d="M2191 3154 c0 -11 3 -14 6 -6 3 7 2 16 -1 19 -3 4 -6 -2 -5 -13z"/>
<path d="M2931 3134 c1 -16 5 -40 9 -54 6 -17 7 -9 3 25 -6 56 -14 74 -12 29z"/>
<path d="M3483 3141 c0 -11 5 -18 9 -15 4 3 5 11 1 19 -7 21 -12 19 -10 -4z"/>
<path d="M3440 3118 c-3 -87 -12 -121 -51 -202 -33 -68 -43 -100 -43 -140 0
-59 42 -296 56 -311 6 -6 7 -1 4 15 -3 14 -18 85 -32 159 -29 156 -26 183 33
291 28 51 37 80 41 133 2 37 2 67 -2 67 -3 0 -6 -6 -6 -12z"/>
<path d="M1919 3043 c26 -18 75 -27 65 -12 -3 5 -10 7 -15 4 -5 -4 -19 1 -31
9 -12 9 -27 16 -32 16 -6 0 0 -7 13 -17z"/>
<path d="M2952 3035 c-1 -11 3 -38 7 -60 7 -34 9 -35 9 -10 0 35 -15 101 -16
70z"/>
<path d="M1974 2943 c-1 -37 -5 -138 -9 -223 -4 -85 -5 -153 -2 -150 3 3 7 54
8 113 1 60 8 145 15 189 11 63 11 86 1 110 -11 27 -12 25 -13 -39z"/>
<path d="M3753 2922 c-2 -37 -2 -37 9 -9 6 16 6 33 2 37 -5 5 -10 -7 -11 -28z"/>
<path d="M2977 2855 c4 -74 2 -87 -31 -169 -33 -83 -35 -91 -21 -113 16 -24
52 -38 82 -30 11 3 5 5 -13 6 -17 0 -39 10 -49 21 -21 23 -18 44 25 150 22 57
28 148 11 192 -6 15 -7 -6 -4 -57z"/>
<path d="M3716 2784 c-9 -37 -15 -68 -13 -71 3 -2 12 26 21 63 9 37 15 68 13
71 -3 2 -12 -26 -21 -63z"/>
<path d="M3681 2659 c-7 -22 -11 -43 -8 -45 2 -2 9 14 16 37 7 22 11 43 8 45
-2 2 -9 -14 -16 -37z"/>
<path d="M3645 2544 c-9 -33 -29 -102 -45 -155 -34 -110 -38 -141 -9 -59 30
82 80 262 75 267 -3 3 -12 -21 -21 -53z"/>
<path d="M1970 2557 c0 -20 50 -246 59 -267 l11 -25 -4 25 c-18 105 -66 299
-66 267z"/>
<path d="M3040 2533 c0 -4 5 -15 10 -23 8 -13 10 -13 10 2 0 9 -4 20 -10 23
-5 3 -10 3 -10 -2z"/>
<path d="M3059 2465 c5 -17 12 -39 15 -50 3 -11 3 -2 1 19 -2 22 -9 44 -15 50
-7 7 -8 2 -1 -19z"/>
<path d="M2577 2436 c-27 -13 -63 -37 -79 -53 -92 -85 -105 -259 -27 -347 36
-42 87 -66 146 -71 58 -5 70 -16 54 -51 -35 -78 -147 -162 -241 -180 -21 -5
-30 -12 -28 -23 8 -40 217 0 276 53 13 12 41 46 63 76 24 35 55 64 83 79 71
37 91 87 91 231 0 105 -2 119 -27 165 -47 90 -107 130 -210 140 -43 5 -62 1
-101 -19z m142 -45 c28 -28 35 -96 21 -218 -17 -145 -33 -169 -94 -142 -36 17
-48 57 -48 156 0 174 56 269 121 204z"/>
<path d="M3401 2449 c-1 -4 9 -51 20 -105 12 -55 29 -135 38 -179 19 -95 27
-111 47 -94 8 6 14 16 14 22 0 6 -6 2 -14 -9 -17 -22 -11 -42 -57 181 -27 131
-46 203 -48 184z"/>
<path d="M3081 2383 c-1 -17 63 -341 83 -419 9 -33 21 -108 26 -165 10 -90 46
-236 57 -225 2 2 -5 30 -15 62 -11 33 -23 97 -27 144 -6 70 -39 236 -113 570
-5 25 -10 39 -11 33z"/>
<path d="M3531 2364 c0 -11 3 -14 6 -6 3 7 2 16 -1 19 -3 4 -6 -2 -5 -13z"/>
<path d="M3561 2259 c-1 -9 -10 -44 -22 -78 -11 -35 -18 -65 -15 -68 7 -7 48
136 42 150 -2 7 -5 5 -5 -4z"/>
<path d="M2041 2250 c-1 -23 19 -89 29 -95 7 -4 7 2 1 17 -5 13 -14 39 -19 58
-6 19 -10 28 -11 20z"/>
<path d="M2109 2151 c25 -7 100 -104 101 -130 0 -8 -12 -34 -26 -59 -43 -73
-46 -95 -23 -201 33 -159 63 -275 67 -262 2 6 -5 49 -17 94 -60 242 -63 293
-17 365 14 23 26 53 26 66 0 13 3 26 8 29 4 2 2 2 -5 1 -6 -2 -30 22 -53 52
-29 38 -47 54 -63 53 -21 -1 -21 -1 2 -8z"/>
<path d="M2440 2020 c0 -5 5 -10 11 -10 5 0 7 5 4 10 -3 6 -8 10 -11 10 -2 0
-4 -4 -4 -10z"/>
<path d="M2565 1870 c3 -5 8 -10 11 -10 2 0 4 5 4 10 0 6 -5 10 -11 10 -5 0
-7 -4 -4 -10z"/>
<path d="M3249 1495 c-4 -38 -10 -81 -13 -95 -4 -14 1 -7 9 15 9 24 15 62 13
95 l-3 55 -6 -70z"/>
<path d="M2232 1460 c0 -14 2 -19 5 -12 2 6 2 18 0 25 -3 6 -5 1 -5 -13z"/>
<path d="M2240 1424 c0 -9 83 -370 100 -435 7 -26 18 -40 40 -49 48 -20 55
-36 55 -129 0 -81 1 -86 25 -98 19 -9 102 -13 326 -13 274 0 302 2 316 18 30
34 60 141 65 238 5 86 4 99 -16 135 -14 25 -20 47 -16 60 5 15 4 19 -4 15 -17
-11 -13 -41 10 -81 19 -32 20 -44 14 -128 -7 -86 -37 -211 -55 -230 -12 -13
-631 -8 -647 5 -14 11 -15 62 -4 113 9 39 -16 81 -60 103 -26 13 -35 26 -42
57 -11 53 -53 229 -79 335 -20 81 -28 105 -28 84z"/>
<path d="M3216 1346 c-3 -13 -2 -35 3 -48 7 -18 9 -14 8 25 0 53 -2 57 -11 23z"/>
<path d="M3180 1221 l-45 -44 45 33 c25 19 47 35 49 36 1 2 1 6 0 11 -2 4 -24
-12 -49 -36z"/>
<path d="M3159 1233 c-13 -16 -12 -17 4 -4 16 13 21 21 13 21 -2 0 -10 -8 -17
-17z"/>
</g>
</svg>
